<svg width="128" height="128" viewBox="0 0 128 128" fill="none" xmlns="http://www.w3.org/2000/svg">
<rect x="4" y="4" width="120" height="120" rx="16" fill="url(#paint0_linear_1:2)"/>
<rect x="4.5" y="4.5" width="119" height="119" rx="15.5" stroke="black" stroke-opacity="0.21"/>
<path d="M65.9825 107.764L66.0378 107.678L66.0839 107.586L107.774 24.8019L107.827 24.6975L107.867 24.5876C108.055 24.0729 108.242 23.5829 108.428 23.1174C108.794 22.3411 109 21.5127 109 20.6485C109 19.5481 108.65 18.5337 108.009 17.6538C107.469 16.9132 106.702 16.5122 105.989 16.2949C105.277 16.0779 104.48 16 103.661 16C101.729 16 99.8968 16.5799 98.716 18.1694L98.7023 18.1878L98.6891 18.2065C97.9923 19.1907 97.393 20.3144 96.8804 21.5606L55.4633 104.128C55.1536 104.636 54.8798 105.067 54.641 105.424L54.6026 105.481L54.5683 105.541C54.1555 106.261 54 107.051 54 107.822V107.823V107.825V107.826V107.828V107.829V107.831V107.832V107.834V107.835V107.837V107.838V107.84V107.841V107.843V107.844V107.846V107.847V107.849V107.85V107.852V107.853V107.855V107.856V107.858V107.859V107.861V107.862V107.864V107.865V107.867V107.868V107.87V107.871V107.873V107.874V107.876V107.877V107.879V107.88V107.882V107.883V107.885V107.886V107.888V107.889V107.891V107.893V107.894V107.896V107.897V107.899V107.9V107.902V107.903V107.905V107.906V107.908V107.909V107.911V107.913V107.914V107.916V107.917V107.919V107.92V107.922V107.923V107.925V107.927V107.928V107.93V107.931V107.933V107.934V107.936V107.937V107.939V107.941V107.942V107.944V107.945V107.947V107.948V107.95V107.952V107.953V107.955V107.956V107.958V107.96V107.961V107.963V107.964V107.966V107.967V107.969V107.971V107.972V107.974V107.975V107.977V107.979V107.98V107.982V107.983V107.985V107.987V107.988V107.99V107.991V107.993V107.995V107.996V107.998V107.999V108.001V108.003V108.004V108.006V108.007V108.009V108.011V108.012V108.014V108.016V108.017V108.019V108.02V108.022V108.024V108.025V108.027V108.029V108.03V108.032V108.033V108.035V108.037V108.038V108.04V108.042V108.043V108.045V108.047V108.048V108.05V108.052V108.053V108.055V108.056V108.058V108.06V108.061V108.063V108.065V108.066V108.068V108.07V108.071V108.073V108.075V108.076V108.078V108.08V108.081V108.083V108.085V108.086V108.088V108.09V108.091V108.093V108.095V108.096V108.098V108.1V108.101V108.103V108.105V108.107V108.108V108.11V108.112V108.113V108.115V108.117V108.118V108.12V108.122V108.123V108.125V108.127V108.129V108.13V108.132V108.134V108.135V108.137V108.139V108.14V108.142V108.144V108.146V108.147V108.149V108.151V108.152V108.154V108.156V108.158V108.159V108.161V108.163V108.165V108.166V108.168V108.17V108.171V108.173V108.175V108.177V108.178V108.18V108.182V108.184V108.185V108.187V108.189V108.191V108.192V108.194V108.196V108.198V108.199V108.201V108.203V108.205V108.206V108.208V108.21V108.212V108.213V108.215V108.217V108.219V108.22V108.222V108.224V108.226V108.227V108.229V108.231V108.233V108.234V108.236V108.238V108.24V108.242V108.243V108.245V108.247V108.249V108.25V108.252V108.254V108.256V108.258V108.259V108.261V108.263V108.265V108.267V108.268V108.27V108.272V108.274V108.275V108.277V108.279V108.281V108.283V108.285V108.286V108.288V108.29V108.292V108.294V108.295V108.297V108.299V108.301V108.303V108.304V108.306V108.308V108.31V108.312V108.314V108.315V108.317V108.319V108.321V108.323V108.324V108.326V108.328V108.33V108.332V108.334V108.335V108.337V108.339V108.341V108.343V108.345V108.346V108.348V108.35V108.352V108.354V108.356V108.358V108.359V108.361V108.363V108.365V108.367V108.369V108.371V108.372V108.374V108.376V108.378V108.38V108.382V108.384V108.385V108.387V108.389V108.391V108.393V108.395V108.397V108.399V108.4V108.402V108.404V108.406V108.408V108.41V108.412V108.414V108.415V108.417V108.419V108.421V108.423V108.425V108.427V108.429V108.431V108.432V108.434V108.436V108.438V108.44V108.442V108.444V108.446V108.448V108.45V108.451V108.453V108.455V108.457V108.459V108.461V108.463V108.465V108.467V108.469V108.471V108.473V108.474V108.476V108.478V108.48V108.482V108.484V108.486V108.488V108.49V108.492V108.494V108.496V108.498V108.5V108.501V108.503V108.505V108.507V108.509V108.511V108.513V108.515V108.517V108.519V108.521V108.523V108.525V108.527V108.529V108.531V108.533V108.535V108.537V108.539V108.54V108.542V108.544V108.546V108.548V108.55V108.552V108.554V108.556V108.558V108.56V108.562V108.564V108.566V108.568V108.57V108.572V108.574V108.576V108.578V108.58V108.582V108.584V108.586V108.588V108.59V108.592V108.594V108.596V108.598V108.6V108.602V108.604V108.606V108.608V108.61V108.612V108.614V108.616V108.618V108.62V108.622V108.624V108.626V108.628V108.63V108.632V108.634V108.636V108.638V108.64V108.642V108.644V108.646V108.648V108.65V108.652V108.654V108.656V108.658V108.66V108.662V108.664V108.666V108.668V108.67V108.672V108.674V108.676V108.678V108.681V108.683V108.685V108.687V108.689V108.691V108.693V108.695V108.697V108.699V108.701V108.703V108.705V108.707V108.709V108.711V108.713V108.715V108.717V108.72V108.722V108.724V108.726V108.728V108.73V108.896L54.0274 109.06C54.1358 109.708 54.3637 110.335 54.7422 110.901L54.7773 110.953L54.8156 111.004C55.3186 111.662 55.9745 112.132 56.7022 112.448C57.6104 112.864 58.672 113 59.744 113C61.4873 113 63.0848 112.341 64.0677 110.779C64.6041 109.926 65.2422 108.922 65.9825 107.764Z" fill="#0075FF" stroke="#0075FF" stroke-width="4"/>
<path d="M24.9752 101.048L24.9549 101.068L24.9353 101.089C23.5995 102.499 23 104.297 23 106.289C23 108.246 23.6125 110.008 24.9752 111.367L24.9954 111.387L25.0162 111.406C26.4298 112.738 28.2296 113.334 30.2228 113.334C32.1419 113.334 33.8693 112.718 35.2893 111.46C36.8448 110.132 37.6088 108.343 37.6088 106.289C37.6088 104.205 36.8643 102.378 35.3315 100.993C33.9165 99.6651 32.1752 99 30.2228 99C28.1967 99 26.3831 99.6445 24.9752 101.048Z" fill="#0075FF" stroke="#0075FF" stroke-width="4"/>
<defs>
<linearGradient id="paint0_linear_1:2" x1="64" y1="4" x2="64" y2="124" gradientUnits="userSpaceOnUse">
<stop stop-color="#ECECEC"/>
<stop offset="1" stop-color="#B9B9B9"/>
</linearGradient>
</defs>
</svg>
